<?xml version="1.0" encoding="UTF-8"?>
<svg width="200px" height="200px" viewBox="0 0 200 200" version="1.1" xmlns="http://www.w3.org/2000/svg" xmlns:xlink="http://www.w3.org/1999/xlink">
    <!-- Generator: Sketch 49.3 (51167) - http://www.bohemiancoding.com/sketch -->
    <title>HireFire</title>
    <desc>Created with Sketch.</desc>
    <defs>
        <linearGradient x1="0%" y1="100%" x2="100%" y2="0%" id="linearGradient-1">
            <stop stop-color="#9A8E79" offset="0%"></stop>
            <stop stop-color="#F1E6D3" offset="100%"></stop>
        </linearGradient>
        <path d="M50,0 L150,0 C177.614,0 200,22.386 200,50 L200,150 C200,177.614 177.614,200 150,200 L50,200 C22.386,200 0,177.614 0,150 L0,50 C0,22.386 22.386,0 50,0" id="path-2"></path>
        <filter x="-3.8%" y="-3.8%" width="107.5%" height="107.5%" filterUnits="objectBoundingBox" id="filter-3">
            <feOffset dx="0" dy="-15" in="SourceAlpha" result="shadowOffsetInner1"></feOffset>
            <feComposite in="shadowOffsetInner1" in2="SourceAlpha" operator="arithmetic" k2="-1" k3="1" result="shadowInnerInner1"></feComposite>
            <feColorMatrix values="0 0 0 0 0   0 0 0 0 0   0 0 0 0 0  0 0 0 0.1 0" type="matrix" in="shadowInnerInner1"></feColorMatrix>
        </filter>
    </defs>
    <g id="HireFire" stroke="none" stroke-width="1" fill="none" fill-rule="evenodd">
        <g id="Fill-1">
            <use fill="url(#linearGradient-1)" fill-rule="evenodd" xlink:href="#path-2"></use>
            <use fill="black" fill-opacity="1" filter="url(#filter-3)" xlink:href="#path-2"></use>
        </g>
        <g id="Page-1" transform="translate(50.000000, 45.000000)" fill="#1F2B31">
            <path d="M98.6350221,20.3878125 C99.2963226,11.470625 91.4364741,1.0096875 79.3452494,0.8346875 C71.9849274,0.72765625 64.6214489,0.81203125 57.2595486,0.82296875 C56.793166,0.82375 56.3252052,0.92609375 55.4492582,1.02921875 C61.9778251,6.1315625 64.6356534,12.6339063 64.3783933,20.3878125 L98.6350221,20.3878125 Z M19.7634943,60.520625 C11.876815,60.7784375 5.33877841,58.3065625 0.386916035,52.1604688 C0.266177399,52.2784375 0.146227904,52.3964063 0.0254892677,52.5135938 L0.0254892677,54.9776563 C0.0254892677,63.2979688 -0.0573705808,71.6190625 0.077572601,79.9370313 C0.114662247,82.22375 0.525015783,84.5917188 1.24708018,86.764375 C3.8141572,94.5003125 12.518387,100.322969 19.7634943,99.5175 L19.7634943,60.520625 Z M0.0365372475,2.45421875 C0.031802399,13.7128125 0.0207544192,24.9714063 0.0491635101,36.23 C0.0523200758,37.44875 0.168323864,38.6971875 0.4453125,39.883125 C2.74881629,49.7323438 11.1294981,55.5651563 20.9748264,55.3682813 C26.3607165,55.26125 31.7529198,55.4667188 37.1403883,55.405 C38.7510259,55.3870313 39.1298138,55.9651563 39.1187658,57.4409375 C39.0603693,64.7940625 39.1842645,72.1495312 39.0635259,79.5010938 C38.9593592,85.855 41.352036,91.0354688 46.1500158,95.1104688 C49.7287721,98.1495313 53.9222696,99.7042188 58.9775095,99.6198438 L58.9775095,55.2385938 L99.8929135,55.2385938 C99.7421875,49.9307813 98.0384312,45.626875 94.6798453,41.99875 C90.6954703,37.6940625 85.6528567,35.651875 79.8108428,35.595625 C72.9839804,35.53 65.8122633,35.58 58.835464,35.58 C58.835464,34.4857178 58.8978062,33.5323438 58.8883365,32.576875 C58.8496686,28.2815625 58.8985953,23.9854688 58.835464,19.6917188 C58.7802241,15.8909375 57.6162405,12.4120313 55.3553504,9.333125 C51.4001736,3.94328125 46.1381787,0.99953125 38.9277936,1.07765625 L38.9277936,35.58 C32.9058554,35.58 27.2587595,35.5815625 21.6116635,35.5760938 C21.3091593,35.5760938 20.7107271,35.5826042 19.8163668,35.595625 C19.8211016,34.1372917 19.8211016,33.0672396 19.8163668,32.3854688 C19.7848011,27.9604688 19.8124211,23.5354688 19.7824337,19.1104688 C19.7769097,18.2745313 19.6585385,17.4323438 19.5086016,16.6073438 C18.0826231,8.76125 10.7096749,0.98390625 0.114662247,0.97765625 C0.0823074495,1.56203125 0.0365372475,2.008125 0.0365372475,2.45421875 Z" id="Fill-1"></path>
        </g>
    </g>
</svg>